<?xml version="1.0" standalone="no"?>
<!DOCTYPE svg PUBLIC "-//W3C//DTD SVG 20010904//EN"
 "http://www.w3.org/TR/2001/REC-SVG-20010904/DTD/svg10.dtd">
<svg version="1.0" xmlns="http://www.w3.org/2000/svg"
 width="2771.000000pt" height="2771.000000pt" viewBox="0 0 2771.000000 2771.000000"
 preserveAspectRatio="xMidYMid meet">
<metadata>
Created by potrace 1.14, written by Peter Selinger 2001-2017
</metadata>
<g transform="translate(0.000000,2771.000000) scale(0.100000,-0.100000)"
fill="#000000" stroke="none">
<path d="M13067 27693 c-1 0 -49 -4 -107 -7 -58 -4 -130 -8 -160 -11 -30 -3
-84 -7 -120 -10 -125 -10 -242 -21 -320 -30 -19 -2 -60 -7 -90 -10 -30 -4 -66
-8 -80 -10 -14 -2 -50 -6 -80 -10 -30 -3 -66 -8 -80 -10 -14 -2 -49 -7 -79
-10 -30 -4 -61 -8 -70 -10 -17 -3 -73 -11 -131 -19 -43 -6 -336 -54 -370 -61
-14 -2 -83 -16 -155 -29 -71 -14 -184 -37 -250 -51 -66 -15 -129 -28 -140 -31
-11 -2 -70 -15 -130 -29 -61 -14 -121 -28 -134 -31 -14 -3 -28 -7 -31 -9 -4
-2 -22 -7 -40 -10 -38 -7 -222 -55 -231 -60 -3 -2 -19 -6 -35 -9 -40 -7 -420
-118 -574 -167 -500 -161 -1086 -384 -1455 -555 -33 -15 -62 -28 -65 -29 -3 0
-45 -20 -93 -43 -49 -23 -91 -42 -94 -42 -6 0 -494 -244 -583 -293 -213 -114
-264 -143 -433 -241 -87 -50 -171 -99 -185 -108 -15 -10 -34 -21 -41 -25 -87
-41 -632 -399 -901 -591 -154 -110 -546 -405 -560 -421 -3 -3 -39 -33 -80 -65
-114 -91 -451 -373 -470 -395 -3 -3 -43 -40 -90 -81 -326 -286 -765 -726
-1107 -1109 -26 -30 -57 -65 -68 -77 -25 -28 -36 -41 -171 -199 -182 -215
-541 -673 -654 -836 -237 -341 -307 -443 -411 -604 -129 -201 -248 -396 -371
-610 -69 -120 -93 -164 -200 -360 -53 -97 -305 -602 -350 -700 -48 -104 -86
-189 -110 -245 -11 -25 -26 -60 -34 -77 -267 -609 -570 -1497 -708 -2078 -2
-5 -8 -28 -14 -50 -6 -22 -13 -51 -16 -65 -3 -14 -7 -35 -10 -47 -4 -13 -8
-33 -12 -45 -3 -13 -7 -33 -10 -45 -2 -12 -15 -69 -28 -125 -21 -86 -41 -183
-62 -283 -10 -52 -24 -122 -28 -145 -3 -14 -10 -51 -16 -82 -6 -31 -13 -70
-15 -85 -2 -15 -8 -53 -14 -83 -6 -30 -13 -71 -16 -90 -3 -19 -7 -46 -10 -60
-3 -14 -7 -43 -10 -65 -2 -22 -6 -49 -9 -60 -4 -22 -16 -103 -22 -148 -2 -15
-5 -44 -8 -65 -6 -44 -26 -195 -31 -237 -17 -142 -22 -189 -40 -395 -3 -30 -7
-77 -10 -105 -2 -27 -7 -88 -10 -135 -3 -47 -8 -112 -10 -145 -21 -282 -28
-1219 -12 -1510 12 -226 16 -296 22 -370 3 -38 8 -101 11 -140 2 -38 6 -86 8
-105 3 -19 8 -69 11 -110 4 -41 9 -88 11 -105 3 -16 7 -52 9 -80 3 -27 9 -84
15 -125 5 -41 12 -98 15 -126 3 -28 8 -61 10 -75 3 -13 7 -46 10 -74 3 -27 8
-57 10 -65 2 -8 7 -35 10 -60 2 -25 7 -54 9 -65 2 -11 9 -55 16 -98 18 -123
45 -274 61 -344 5 -22 11 -58 15 -80 3 -21 12 -69 21 -108 8 -38 17 -81 19
-95 3 -14 19 -86 35 -160 17 -74 32 -143 34 -152 35 -159 168 -650 236 -873
72 -234 241 -733 279 -822 14 -33 21 -49 101 -253 39 -102 80 -203 90 -225 10
-22 29 -68 43 -102 15 -35 38 -89 52 -120 15 -32 36 -80 49 -108 128 -288 391
-810 523 -1040 25 -44 59 -105 75 -135 16 -30 35 -62 42 -70 7 -8 14 -22 17
-31 6 -15 193 -326 272 -449 93 -147 382 -577 396 -590 3 -3 39 -52 79 -108
229 -323 620 -811 879 -1097 21 -22 57 -63 81 -90 259 -291 706 -735 1037
-1032 208 -187 543 -464 824 -683 57 -44 393 -291 439 -321 24 -17 79 -55 122
-85 154 -107 516 -344 604 -394 17 -10 94 -56 172 -103 79 -48 164 -98 190
-112 27 -15 55 -30 63 -35 37 -23 123 -71 225 -125 61 -32 115 -61 120 -65 12
-10 572 -290 578 -290 3 0 51 -22 108 -49 216 -101 560 -248 734 -312 43 -17
93 -36 110 -43 16 -8 46 -19 65 -26 19 -7 44 -16 55 -20 22 -9 117 -43 245
-88 47 -16 120 -42 162 -57 43 -15 83 -25 91 -22 7 3 18 27 25 53 6 27 29 112
51 189 22 77 74 262 116 410 42 149 78 277 80 285 2 8 31 114 65 235 70 249
111 395 199 710 34 121 71 252 82 290 39 132 178 629 184 655 6 25 132 472
265 943 34 120 63 223 64 230 2 7 10 37 19 67 9 30 48 170 87 310 40 140 112
399 162 575 49 176 92 327 93 335 2 8 15 53 28 100 14 47 38 135 55 195 17 61
80 286 141 500 176 626 313 1116 336 1200 7 28 25 91 40 140 14 50 31 108 36
130 6 22 24 87 41 145 29 100 49 171 69 250 13 50 17 61 29 100 6 19 29 100
51 180 23 80 57 201 76 270 19 69 39 139 43 155 7 24 148 528 165 585 2 8 15
56 29 105 13 50 50 180 81 290 31 110 58 207 60 215 2 8 31 112 65 230 66 232
201 715 231 820 10 36 34 124 54 195 20 72 38 137 40 145 3 13 44 157 218 775
25 88 64 228 87 310 23 83 45 161 50 175 4 14 20 70 35 125 15 55 60 217 100
360 l73 260 0 6877 -1 6878 -89 -3 c-49 -1 -90 -3 -91 -4z m-1037 -7459 l0
-6124 -65 -233 c-36 -127 -77 -271 -91 -318 -13 -47 -26 -94 -29 -105 -2 -10
-38 -140 -80 -289 -42 -148 -78 -277 -80 -285 -4 -17 -75 -269 -105 -370 -10
-36 -37 -132 -60 -215 -23 -82 -52 -186 -65 -230 -13 -44 -28 -98 -34 -120 -5
-22 -37 -137 -71 -255 -33 -118 -63 -226 -66 -239 -3 -14 -7 -28 -10 -33 -3
-4 -7 -16 -9 -25 -3 -19 -113 -411 -145 -523 -11 -36 -47 -164 -81 -285 -33
-121 -86 -308 -116 -415 -30 -107 -60 -217 -68 -245 -58 -207 -79 -285 -110
-390 -19 -66 -57 -201 -84 -300 -28 -99 -89 -317 -136 -485 -48 -168 -97 -345
-111 -393 -13 -49 -48 -175 -78 -280 -86 -305 -333 -1186 -341 -1217 -2 -8
-15 -53 -28 -100 -14 -47 -60 -209 -102 -360 -42 -151 -102 -363 -132 -469
-30 -107 -57 -206 -60 -220 -2 -13 -6 -28 -9 -32 -4 -7 -91 -313 -129 -454
-22 -86 -132 -475 -160 -570 -15 -49 -28 -97 -30 -105 -1 -8 -19 -71 -38 -140
-20 -69 -72 -255 -117 -415 -44 -159 -97 -345 -116 -412 -19 -67 -37 -130 -39
-140 -2 -10 -43 -155 -90 -323 -47 -168 -92 -327 -100 -355 -8 -27 -34 -122
-59 -210 -25 -88 -51 -179 -58 -202 l-13 -42 -85 38 c-174 78 -481 228 -655
320 -107 57 -216 116 -255 138 -36 20 -92 52 -177 100 -410 228 -983 614
-1433 962 -143 111 -463 372 -490 401 -3 3 -39 35 -82 72 -305 264 -741 691
-1014 993 -14 17 -43 48 -63 70 -20 22 -97 110 -170 195 -73 85 -143 166 -155
180 -93 108 -437 554 -549 710 -162 227 -431 630 -507 760 -8 14 -31 52 -50
84 -200 331 -338 584 -524 961 -244 494 -416 903 -598 1425 -37 106 -147 445
-158 485 -4 17 -38 136 -74 265 -37 129 -68 244 -70 255 -2 11 -20 85 -39 165
-73 298 -155 710 -187 927 -6 43 -15 101 -20 128 -5 28 -12 73 -15 100 -3 28
-10 79 -15 115 -5 36 -12 88 -15 115 -4 28 -8 61 -10 75 -2 14 -6 54 -10 90
-3 36 -8 81 -11 100 -2 19 -6 62 -9 95 -3 33 -7 83 -10 110 -3 28 -7 82 -10
120 -22 317 -21 300 -30 555 -12 337 -6 1001 10 1135 2 16 7 82 10 145 12 203
28 401 40 470 2 14 7 61 10 104 3 44 7 82 9 85 2 3 7 37 11 74 3 37 8 76 9 85
2 9 7 43 11 76 3 32 8 68 10 80 3 11 11 68 20 126 14 99 17 118 30 188 3 15
12 68 20 117 9 50 25 133 35 185 11 52 22 106 24 120 5 26 42 200 50 235 21
86 63 263 70 293 71 306 287 1006 403 1307 19 50 38 101 43 115 5 14 15 39 21
55 7 17 13 32 13 35 4 19 196 476 246 585 15 33 36 78 45 100 30 68 303 616
341 685 19 36 56 103 82 150 26 47 52 94 59 105 7 11 17 29 22 40 13 26 168
285 256 427 137 223 391 594 579 848 77 103 74 99 138 180 23 30 56 72 72 94
25 33 184 230 248 306 34 41 132 155 138 160 3 3 20 23 39 45 45 53 150 171
236 264 38 42 198 204 355 361 252 253 371 367 530 506 24 21 51 46 60 54 32
29 86 76 205 176 683 572 1366 1037 2150 1461 132 72 508 261 600 303 28 13
92 42 143 66 52 24 96 44 98 44 2 0 32 13 66 29 141 64 429 181 643 261 329
123 823 282 1122 360 234 61 484 123 553 136 14 3 63 14 110 24 47 10 96 21
110 23 53 10 206 39 225 43 38 8 278 49 350 60 22 3 56 9 75 13 19 4 41 6 48
3 9 -3 12 -1238 12 -6128z"/>
<path d="M14460 20968 l0 -6733 63 -29 c34 -17 238 -116 452 -222 215 -105
505 -248 645 -316 280 -138 713 -351 1170 -575 162 -80 408 -201 545 -268 138
-67 390 -191 560 -275 364 -179 749 -368 1105 -543 140 -68 404 -198 585 -287
182 -89 452 -222 600 -295 383 -188 768 -377 1150 -565 182 -89 447 -220 590
-290 143 -70 391 -192 550 -270 160 -78 403 -198 540 -265 138 -68 394 -194
570 -280 176 -87 442 -217 590 -290 149 -73 396 -194 550 -270 276 -136 628
-308 1145 -563 146 -71 357 -175 470 -231 112 -55 207 -97 211 -93 21 25 252
605 349 877 91 257 239 709 255 781 2 11 20 75 40 144 31 109 139 526 149 577
2 10 12 50 21 88 19 85 74 338 81 380 2 17 7 37 9 45 2 8 7 29 9 45 3 17 17
98 32 180 15 83 28 160 29 172 2 12 6 34 9 50 3 15 8 48 11 73 3 25 8 52 10
60 2 8 6 38 10 65 10 86 16 133 30 225 2 14 6 50 10 80 3 30 8 66 10 80 2 14
7 54 10 90 3 36 8 81 10 100 6 38 10 85 20 200 3 41 8 95 10 120 3 25 7 90 10
145 3 55 8 123 10 150 20 256 27 1140 11 1445 -13 260 -25 449 -30 505 -3 22
-7 74 -11 115 -3 41 -8 91 -10 110 -3 19 -7 64 -10 100 -3 36 -8 76 -10 90 -2
14 -7 54 -10 90 -3 36 -8 76 -10 90 -2 14 -7 45 -10 70 -12 93 -15 117 -25
185 -6 39 -12 84 -14 100 -2 17 -8 57 -14 90 -6 33 -14 80 -17 105 -4 24 -8
47 -10 50 -1 3 -6 25 -9 50 -3 25 -13 83 -22 130 -8 47 -16 94 -18 105 -2 11
-8 45 -15 75 -6 30 -13 64 -15 75 -3 11 -14 65 -25 121 -12 55 -23 110 -26
122 -2 12 -11 49 -19 83 -9 33 -18 75 -22 92 -6 36 -90 376 -105 422 -5 17
-32 111 -60 210 -176 627 -453 1384 -701 1915 -22 47 -58 126 -81 175 -46 99
-301 606 -337 670 -13 22 -34 60 -48 85 -82 150 -137 245 -231 403 -58 98
-113 190 -121 204 -8 15 -18 32 -23 38 -4 5 -42 64 -83 130 -79 125 -266 407
-306 462 -13 17 -30 41 -38 53 -190 283 -586 789 -911 1165 -317 366 -884 941
-1189 1205 -14 12 -56 50 -95 85 -38 34 -86 75 -105 91 -19 16 -41 36 -50 44
-9 8 -38 33 -65 55 -64 53 -119 99 -125 105 -15 17 -368 294 -505 396 -518
388 -1017 712 -1607 1042 -272 153 -711 373 -978 492 -47 21 -110 49 -140 63
-160 73 -540 227 -735 298 -60 22 -119 44 -130 49 -64 29 -549 187 -805 264
-173 51 -521 145 -600 161 -8 2 -43 10 -78 19 -34 9 -82 21 -105 26 -23 4 -53
11 -66 14 -134 31 -440 93 -576 117 -33 6 -80 15 -105 20 -25 5 -65 12 -90 14
-25 3 -52 8 -60 10 -8 3 -31 7 -50 9 -19 3 -66 9 -105 15 -91 13 -136 20 -182
26 -21 3 -51 7 -68 10 -16 2 -50 7 -75 10 -98 11 -137 15 -185 21 -56 7 -70 9
-170 18 -38 4 -88 9 -110 11 -22 3 -69 7 -105 10 -113 8 -213 15 -275 20 -33
3 -115 8 -182 10 l-123 6 0 -6733z"/>
<path d="M14221 12923 c-11 -38 -47 -167 -81 -288 -34 -121 -69 -245 -78 -275
-9 -30 -17 -59 -18 -65 -2 -14 -84 -305 -94 -335 -4 -14 -13 -43 -19 -65 -6
-22 -27 -98 -47 -168 -19 -71 -37 -136 -39 -145 -2 -9 -19 -71 -38 -137 -20
-66 -42 -145 -50 -175 -8 -30 -26 -93 -40 -140 -14 -47 -37 -130 -52 -185 -14
-55 -30 -113 -36 -130 -5 -16 -24 -84 -43 -150 -99 -352 -118 -421 -121 -435
-2 -8 -16 -55 -30 -105 -14 -49 -28 -97 -30 -106 -2 -9 -9 -34 -15 -55 -6 -22
-15 -52 -20 -69 -4 -16 -42 -154 -85 -305 -42 -151 -79 -282 -81 -290 -2 -8
-73 -262 -159 -565 -85 -302 -157 -559 -159 -570 -6 -23 -158 -565 -181 -643
-9 -29 -18 -61 -20 -70 -2 -9 -11 -42 -20 -72 -9 -30 -22 -77 -29 -105 -13
-47 -179 -640 -211 -750 -8 -27 -40 -140 -70 -250 -31 -110 -63 -225 -72 -255
-8 -30 -14 -55 -13 -55 1 0 -3 -12 -9 -28 -6 -15 -13 -38 -15 -50 -3 -12 -12
-44 -20 -72 -13 -45 -75 -264 -96 -340 -20 -75 -189 -676 -285 -1015 -98 -344
-150 -532 -159 -570 -2 -8 -22 -78 -44 -155 -37 -132 -49 -176 -53 -200 0 -5
-5 -17 -10 -26 -4 -9 -10 -27 -13 -40 -3 -13 -22 -80 -41 -149 -20 -69 -37
-132 -39 -140 -2 -8 -21 -73 -41 -145 -20 -71 -38 -137 -40 -145 -3 -8 -11
-40 -20 -70 -9 -30 -23 -79 -31 -109 -8 -30 -26 -94 -40 -141 -13 -48 -26 -97
-29 -109 -2 -11 -6 -25 -9 -29 -3 -5 -7 -19 -10 -33 -5 -23 -14 -54 -91 -324
-20 -71 -41 -146 -46 -165 -5 -19 -11 -42 -14 -50 -2 -8 -15 -55 -29 -105 -13
-49 -59 -211 -101 -360 -42 -148 -78 -277 -81 -285 -6 -25 -39 -143 -123 -443
-45 -159 -81 -292 -81 -296 0 -5 19 -12 43 -16 23 -4 47 -9 52 -11 14 -3 155
-35 185 -40 14 -3 63 -14 110 -24 47 -10 102 -21 123 -24 21 -3 71 -13 110
-20 40 -8 86 -17 102 -20 47 -7 158 -25 180 -30 11 -2 56 -9 100 -16 120 -17
138 -20 165 -25 14 -2 49 -7 79 -10 30 -4 61 -8 70 -10 9 -1 43 -6 76 -9 33
-4 71 -9 85 -11 59 -9 260 -30 385 -41 28 -2 70 -6 95 -9 62 -6 196 -15 450
-32 163 -10 1340 -10 1495 0 66 5 143 10 170 12 160 11 243 17 270 20 17 3 66
7 110 10 43 3 93 8 110 10 42 6 110 13 180 20 33 4 71 8 85 10 14 2 50 7 80
10 30 3 66 8 80 10 14 2 45 6 70 10 25 3 56 8 70 10 14 2 45 7 70 10 25 3 86
13 135 21 50 8 104 17 120 20 17 2 55 9 85 14 30 5 73 12 95 16 22 3 59 10 83
15 23 5 59 12 80 15 20 3 45 7 54 10 9 3 27 7 40 9 13 3 55 11 93 19 39 9 81
17 95 20 21 4 219 48 273 62 9 2 25 6 35 8 18 5 96 24 122 30 184 47 256 66
420 112 1056 297 2116 740 3050 1274 74 43 151 86 170 97 198 112 661 408 905
579 118 83 350 251 450 327 175 132 631 501 720 583 11 11 38 34 60 53 290
247 791 737 1095 1071 40 43 169 188 192 215 14 17 59 68 99 115 41 47 105
124 144 170 38 47 72 87 75 90 3 3 48 59 100 125 52 66 97 122 100 125 12 12
195 256 291 390 254 351 448 644 661 1000 126 210 272 469 267 474 -2 2 -56
28 -119 59 -63 30 -299 146 -525 257 -225 111 -504 249 -620 305 -115 56 -363
178 -550 270 -187 92 -452 223 -590 290 -675 331 -1320 648 -1720 845 -181 89
-433 213 -560 275 -126 62 -378 186 -560 275 -181 89 -431 211 -555 271 -124
61 -232 114 -240 119 -8 6 -24 14 -36 19 -11 5 -159 78 -330 161 -170 84 -421
208 -559 275 -137 67 -389 191 -560 275 -170 84 -429 211 -575 282 -260 128
-600 295 -1150 566 -151 74 -277 136 -280 137 -3 1 -144 70 -315 154 -170 85
-413 204 -540 266 -126 62 -378 186 -560 275 -624 307 -814 400 -819 400 -3 0
-14 -30 -25 -67z m1214 -1872 l400 -197 -179 -120 c-98 -65 -221 -148 -274
-184 -52 -36 -106 -72 -119 -80 -13 -8 -144 -97 -293 -197 -148 -101 -271
-183 -274 -183 -5 0 -11 -21 169 620 80 288 149 528 151 532 3 4 8 8 12 7 4 0
187 -89 407 -198z m1715 -842 c140 -70 325 -160 411 -203 86 -42 159 -79 162
-82 3 -3 -81 -64 -186 -135 -106 -71 -199 -133 -207 -139 -8 -6 -89 -60 -180
-121 -91 -61 -280 -189 -420 -284 -140 -94 -353 -238 -472 -318 -411 -277
-643 -434 -767 -518 -68 -46 -134 -91 -147 -99 -13 -8 -189 -127 -391 -263
-884 -597 -1032 -695 -1028 -684 5 14 113 398 195 692 32 116 81 291 109 389
27 98 56 184 63 191 7 7 139 97 293 200 154 104 327 221 385 260 58 39 238
161 400 270 162 109 363 244 445 300 174 118 639 432 869 586 148 100 160 106
185 95 14 -7 141 -68 281 -137z m1810 -890 c113 -56 310 -153 439 -216 128
-62 232 -115 230 -117 -2 -1 -150 -101 -329 -221 -179 -120 -399 -269 -490
-330 -91 -61 -284 -192 -430 -290 -146 -98 -353 -238 -460 -310 -107 -72 -285
-192 -395 -267 -110 -74 -306 -206 -435 -293 -129 -87 -325 -219 -435 -293
-469 -317 -602 -407 -820 -554 -771 -519 -833 -561 -1280 -863 -99 -67 -299
-202 -445 -300 -146 -98 -339 -229 -430 -290 -196 -133 -489 -329 -509 -340
-11 -6 -13 -3 -7 16 3 13 13 47 21 74 7 28 38 138 68 245 30 107 65 229 77
270 11 41 23 82 25 90 5 24 134 481 148 528 14 47 -26 18 612 446 149 99 272
183 275 186 3 3 159 109 347 235 189 127 443 298 565 380 620 418 856 577 993
669 83 55 152 102 155 105 3 4 13 11 22 16 10 6 88 58 175 117 87 59 273 184
413 279 140 94 379 255 530 357 151 102 336 227 410 276 74 50 140 94 145 98
6 5 62 43 125 85 63 42 194 130 290 195 96 65 180 118 185 118 6 0 102 -46
215 -101z m2086 -1024 c414 -204 484 -238 481 -241 -1 0 -85 -57 -187 -126
-102 -68 -275 -185 -385 -260 -110 -74 -326 -219 -480 -323 -154 -104 -341
-229 -415 -280 -74 -50 -261 -176 -415 -280 -154 -104 -370 -249 -480 -324
-110 -74 -254 -171 -320 -215 -66 -44 -122 -83 -125 -86 -3 -3 -13 -9 -22 -15
-10 -5 -109 -72 -220 -147 -307 -207 -655 -442 -928 -626 -135 -91 -326 -220
-425 -286 -99 -66 -184 -124 -190 -129 -5 -4 -95 -65 -200 -135 -182 -122
-449 -302 -1005 -678 -140 -94 -363 -244 -495 -333 -132 -89 -338 -228 -458
-309 -120 -81 -225 -151 -235 -157 -9 -5 -19 -12 -22 -15 -5 -5 -96 -67 -450
-305 -222 -149 -381 -257 -925 -623 -126 -86 -264 -179 -305 -207 -153 -105
-438 -295 -444 -295 -3 0 -1 12 4 27 5 16 39 136 75 268 37 132 89 319 117
415 27 96 51 182 53 190 3 12 30 111 94 340 6 21 91 89 201 160 31 20 216 144
730 492 102 68 345 232 540 363 195 131 365 245 376 254 12 9 30 22 40 28 160
107 374 251 514 346 231 157 575 388 604 407 14 8 111 74 218 146 106 72 249
169 318 215 69 46 127 86 130 89 3 3 13 10 22 15 10 6 88 58 175 117 87 58
273 184 413 278 140 95 379 256 530 358 151 102 372 251 490 330 118 80 303
205 410 277 107 72 301 203 430 290 129 87 302 204 383 259 82 56 180 121 218
146 80 52 329 221 344 232 6 5 28 20 50 35 55 36 604 406 690 465 39 26 73 48
76 48 4 0 186 -88 405 -195z m1791 -881 c164 -80 362 -177 441 -215 78 -39
142 -72 142 -74 0 -5 -107 -80 -390 -270 -146 -98 -362 -244 -480 -324 -118
-79 -276 -186 -350 -235 -74 -50 -139 -94 -145 -99 -30 -23 -232 -158 -245
-164 -8 -4 -17 -9 -20 -13 -3 -3 -61 -43 -130 -89 -69 -46 -213 -143 -320
-216 -328 -222 -763 -515 -1000 -673 -124 -83 -229 -155 -235 -159 -5 -5 -57
-40 -115 -78 -58 -38 -109 -73 -115 -78 -5 -4 -75 -52 -155 -105 -142 -96
-565 -380 -1025 -690 -126 -86 -304 -206 -395 -267 -203 -137 -477 -322 -845
-570 -440 -297 -697 -469 -875 -590 -91 -61 -277 -187 -415 -280 -266 -179
-519 -350 -860 -580 -619 -418 -582 -395 -633 -396 -26 -1 -58 -3 -72 -4 -203
-23 -1394 -25 -1416 -2 -3 2 55 45 128 94 244 165 651 439 818 551 91 61 170
115 175 119 6 4 154 104 330 222 176 118 354 238 395 266 41 28 194 132 340
230 146 98 360 242 475 320 199 135 271 183 305 205 8 5 40 27 70 48 30 21
228 154 440 297 212 142 432 291 490 330 116 79 598 404 925 623 116 78 215
145 220 149 6 4 100 68 210 142 110 74 268 180 350 236 83 56 254 171 380 257
465 313 734 494 910 613 99 67 279 188 400 270 121 82 308 208 415 280 107 72
308 207 445 300 353 238 634 427 900 608 127 86 231 156 232 156 1 1 136 -65
300 -145z m1127 -1136 c-59 -82 -240 -314 -318 -408 -39 -47 -78 -94 -87 -105
-40 -48 -217 -253 -250 -290 -19 -22 -85 -94 -144 -160 -126 -140 -640 -653
-770 -770 -49 -44 -96 -87 -105 -95 -15 -14 -189 -165 -240 -208 -14 -11 -38
-33 -55 -47 -16 -15 -106 -88 -200 -163 -93 -75 -172 -139 -175 -142 -9 -11
-314 -236 -445 -330 -341 -244 -844 -561 -1198 -754 -34 -19 -105 -57 -157
-86 -160 -87 -665 -334 -850 -414 -96 -42 -186 -82 -200 -88 -14 -6 -27 -12
-30 -13 -8 -3 -42 -17 -85 -35 -22 -10 -89 -36 -150 -59 -60 -23 -119 -46
-130 -51 -89 -42 -804 -285 -925 -315 -8 -2 -102 -29 -209 -59 -107 -31 -196
-54 -199 -52 -3 3 126 93 224 156 13 8 146 98 296 200 292 197 805 543 1553
1047 138 93 360 243 495 334 135 91 364 246 510 344 146 99 351 237 455 308
105 71 273 184 375 253 102 68 336 225 520 350 184 124 425 286 535 360 110
75 315 213 455 307 140 95 359 242 485 327 127 85 232 157 235 160 3 3 169
115 370 249 201 135 383 258 404 273 21 15 41 28 43 28 3 0 -12 -24 -33 -52z"/>
</g>
</svg>
